# xmcd
#
# Track frame offsets: 
#        150
#        19010
#        38569
#        61616
#        77064
#        92367
#        101048
#        120540
#        142086
#        157774
#        172252
#        176304
#        191593
#        202232
#
# Disc length: 2924 seconds
#
# Revision: 0
# Processed by: cddbd v1.5.2PL0 Copyright (c) Steve Scherf et al.
# Submitted via: ExactAudioCopyFreeDBPlugin 1.0
#
DISCID=af0b6a0e
DTITLE=Jim Suhler - Panther Burn
DYEAR=2014
DGENRE=Blues
TTITLE0=Panther Burn
TTITLE1=I Declare
TTITLE2=Across The Brazos
TTITLE3=Leave My Blues Behind
TTITLE4=I See You
TTITLE5=Remember Mama
TTITLE6=Texassippi
TTITLE7=Sky Full Of Crows
TTITLE8=Between Midnight And Day
TTITLE9=Dinosaur Wine
TTITLE10=Amen Corner
TTITLE11=All God's Children Get The Blues Sometimes
TTITLE12=Jump Up
TTITLE13=Worldwide Hoodoo
EXTD=
EXTT0=
EXTT1=
EXTT2=
EXTT3=
EXTT4=
EXTT5=
EXTT6=
EXTT7=
EXTT8=
EXTT9=
EXTT10=
EXTT11=
EXTT12=
EXTT13=
PLAYORDER=
